<svg width="10" height="11" viewBox="0 0 10 11" fill="none" xmlns="http://www.w3.org/2000/svg">
<path fill-rule="evenodd" clip-rule="evenodd" d="M8.32034 5.89409V9.76902V10.08H8.00875H1.62645H1.31544V9.76902V6.52122H2.31929V9.16116H7.31648V5.89466H4.82893H2.96625H2.31986H1.316H1.04011H0.319512L0 5.15479L2.25471 2.74826L4.50885 0.341724L4.82837 0.00125122L5.14788 0.341724L7.40259 2.74826L9.65673 5.15479L9.33722 5.89466H8.31977L8.32034 5.89409ZM7.68811 0.827223V2.61626L7.40259 2.31091L6.58228 1.43622V0.826657H6.29166V0.203495H8.00196V0.826657H7.68811V0.827223ZM5.98745 6.57787V8.49324H5.09519V6.57787H5.98745ZM4.7162 6.57787V8.49324H3.82394V6.57787H4.7162ZM1.62645 4.82169H8.00875H8.11866L6.79019 3.40428L4.85499 1.33822L2.91979 3.40428L1.59189 4.82169H1.62702H1.62645Z" fill="black"/>
</svg>
