<svg width="18" height="19" viewBox="0 0 18 19" fill="none" xmlns="http://www.w3.org/2000/svg">
<path fill-rule="evenodd" clip-rule="evenodd" d="M13.8648 10.2414V11.0701H15.8468V10.2414H13.8648ZM0.527612 6.24771H2.18497V8.77218H15.8468V6.24771H17.5653C18.0719 9.26164 18.1639 12.2756 17.5653 15.2898H15.3279V18.9382H15.2936V13.4828H2.71898V15.2898H0.527903C-0.170038 12.3256 -0.181103 9.31259 0.527903 6.24771H0.527612Z" fill="black"/>
<path fill-rule="evenodd" clip-rule="evenodd" d="M12.1748 1.50772L12.2828 2.28195L13.6283 2.31485L12.1748 1.50772V1.50772ZM5.01371 4.46079V5.1369H12.9933V4.46079H5.01371ZM5.01371 6.06399V6.74039H12.9933V6.06399H5.01371ZM5.01371 2.89545V3.57184H10.5207V2.89545H5.01371ZM15.2933 18.9382H2.71869V13.4828H3.95559V17.7019H14.0913V13.4828H15.2936V18.9382H15.2933ZM2.71869 8.77219V3.05176e-05H11.888L11.9818 0.0483652L15.0959 1.65011L15.3276 1.76978V8.77248H14.1545V2.91001L12.0211 2.85847L11.7739 2.85236L11.7392 2.60748L11.5476 1.23664H3.95501V8.77248H2.71811L2.71869 8.77219Z" fill="black"/>
</svg>
