<svg width="12" height="8" viewBox="0 0 12 8" xmlns="http://www.w3.org/2000/svg">
<path d="M2.84937 1.03136H5.45413L5.28224 0.34454C5.2367 0.160165 5.43723 3.05176e-05 5.62675 3.05176e-05H6.10569C6.2952 3.05176e-05 6.49647 0.1609 6.45019 0.34454L6.27904 1.03136H8.9815C9.6044 1.03136 10.1223 1.50221 10.1979 2.10455H1.63293C1.70933 1.50148 2.2272 1.03136 2.84937 1.03136V1.03136ZM2.22205 3.52079V5.55773C2.22205 5.71199 2.34693 5.8376 2.50119 5.8376C2.65545 5.8376 2.78032 5.71199 2.78032 5.55773V3.52079C2.78032 3.36653 2.65545 3.24165 2.50119 3.24165C2.34693 3.24165 2.22205 3.36579 2.22205 3.52079V3.52079ZM10.2075 2.67016H11.3167C11.7332 2.67016 11.8081 2.77668 11.8125 3.01247C11.8162 3.19538 11.822 3.39812 11.7457 3.48479C11.5921 3.65742 11.2476 3.62803 10.9509 3.36065C10.7657 3.19391 10.4323 3.17187 10.2075 3.17848V6.05282C10.2075 6.72715 9.65509 7.27881 8.98076 7.27881H2.84937C2.17504 7.27881 1.62339 6.72715 1.62339 6.05282V3.17922C1.39788 3.17114 1.05777 3.19097 0.869725 3.36065C0.572962 3.62877 0.228452 3.65742 0.075663 3.48479C-0.00073144 3.39885 -0.00954619 3.19464 0.00881787 3.01247C0.0367312 2.73627 0.119002 2.67016 0.553863 2.67016H1.62412H1.89444H9.92835H10.2089H10.2075Z"/>
</svg>
