<svg width="11" height="8" viewBox="0 0 11 8" xmlns="http://www.w3.org/2000/svg">
<path d="M10.372 2.86234C10.0092 3.14915 9.5167 3.32499 8.97552 3.32499C8.03657 3.32499 7.24785 2.79661 7.0225 2.08045H5.08314V1.20296H7.03702C7.27858 0.508986 8.05535 0.00109863 8.97552 0.00109863C9.53463 0.00109863 10.0417 0.188889 10.407 0.491914C10.2687 0.473989 10.1262 0.462892 9.97935 0.462892C8.88334 0.462892 7.99475 1.00578 7.99475 1.67499C7.99475 2.34421 8.88334 2.8871 9.97935 2.8871C10.1134 2.8871 10.2457 2.87856 10.3729 2.86319L10.372 2.86234ZM4.77158 6.689H0.897125C0.402895 6.689 -0.000854492 6.28525 -0.000854492 5.79102C-0.000854492 5.29764 0.402895 4.89389 0.897125 4.89389H4.77158V6.689V6.689ZM10.1688 7.6288L7.26749 7.21908C7.19664 7.20883 7.14201 7.14823 7.14201 7.07482L7.14372 6.18708H5.08314V5.44446H7.14628L7.14798 4.52429C7.14628 4.45088 7.20005 4.38515 7.27431 4.37576L10.1578 3.99762C10.1671 3.99506 10.1774 3.9942 10.1885 3.9942C10.2687 3.9942 10.3344 4.05993 10.3344 4.14102V7.4854C10.3344 7.49137 10.3336 7.49906 10.3327 7.50503C10.3216 7.58527 10.2482 7.64075 10.168 7.62965L10.1688 7.6288ZM4.77158 2.53456H0.897125C0.402895 2.53456 -0.000854492 2.13081 -0.000854492 1.63658C-0.000854492 1.14235 0.402895 0.738603 0.897125 0.738603H4.77158V2.53371V2.53456Z"/>
</svg>
