<svg width="26" height="25" viewBox="0 0 26 25" fill="none" xmlns="http://www.w3.org/2000/svg">
<path d="M3.84968 8.88699L1.29104 5.20615C1.29104 5.20615 -0.457805 6.9119 0.662607 8.4821C1.78571 10.0532 3.84968 8.88699 3.84968 8.88699Z" fill="black"/>
<path d="M12.0185 12.1621C10.8074 12.566 9.32515 11.8936 9.32515 11.8936C9.32515 11.8936 8.87627 16.0664 12.6918 16.1571C16.5064 16.2469 16.0557 10.6367 16.0557 10.6367H13.1398C13.1398 10.6367 13.2304 11.7581 12.0185 12.1621Z" fill="black"/>
<path d="M5.37947 3.56503C5.38127 3.56324 5.68561 3.30558 6.08152 3.22029C6.77909 3.07036 7.33032 3.3352 7.72264 4.00404C8.07456 4.60375 8.07367 5.38031 8.07277 6.36427C8.07187 7.0735 8.07097 7.877 8.20295 8.77926C8.52524 10.9842 10.5237 11.7554 11.5355 11.8541C11.5624 11.8568 11.5893 11.8586 11.6163 11.8586C12.0319 11.8586 12.3874 11.5417 12.4287 11.1206C12.4727 10.6709 12.1432 10.2713 11.6953 10.2274C11.6279 10.2193 10.0407 10.0478 9.82072 8.54404C9.7067 7.7594 9.7076 7.05196 9.7085 6.36696C9.7094 5.23308 9.71029 4.16205 9.13393 3.1772C8.46868 2.04152 7.5772 1.66177 6.83744 1.57109L5.82476 0V1.60521C5.79693 1.61059 5.76641 1.61598 5.73947 1.62137C4.92251 1.79553 4.35781 2.28571 4.29497 2.34048C3.9601 2.63943 3.93227 3.14937 4.22853 3.48603C4.5239 3.82269 5.03832 3.8568 5.37947 3.56413V3.56503Z" fill="black"/>
<path d="M7.83397 0.269318L7.43985 1.25596L8.22809 1.54684L7.83397 0.269318Z" fill="black"/>
<path d="M21.7125 11.4447C22.446 11.6656 22.5654 13.3974 22.5654 13.3974L25.3925 12.3407C25.3925 12.3407 23.5646 9.30356 21.0832 9.30356C19.2886 9.30356 18.2552 10.6367 18.2552 10.6367L19.917 11.8595C19.917 11.8595 20.3668 11.0416 21.7117 11.4456L21.7125 11.4447Z" fill="black"/>
<path d="M25.1016 17.8144C24.6069 17.5558 23.9902 17.747 23.7244 18.2399C23.7199 18.248 23.3411 18.9222 22.3356 19.7437L20.1863 15.9327C20.1863 15.9327 20.1163 13.6972 19.5588 12.6118C18.7499 11.0407 16.7757 11.0407 16.7757 11.0407C16.7757 11.0407 17.0451 13.9118 16.1033 15.1247C15.1606 16.3357 13.9487 16.6949 13.9487 16.6949C13.9487 16.6949 16.6411 17.6375 17.5388 18.8495C18.1646 19.6943 18.5928 20.9718 18.7957 21.6703C17.4311 22.1614 15.6921 22.5788 13.5016 22.7682C10.5039 23.0277 8.14909 22.516 6.36522 21.7601C6.59685 20.9323 7.00354 19.7051 7.57452 18.8046C8.51807 17.3242 11.39 16.6051 11.39 16.6051C11.39 16.6051 9.68427 15.5744 9.05673 14.2727C8.42829 12.9709 8.69672 11.3101 8.69672 11.3101C8.69672 11.3101 7.84474 9.9652 7.44075 8.52787C7.03675 7.09145 7.35097 5.96924 7.03675 4.71326C6.72343 3.45639 5.60122 4.21949 4.83812 4.26438C4.07502 4.30927 3.58125 3.90527 3.58125 3.90527L1.8306 5.11726L4.43413 8.88788L5.691 8.66254C5.691 8.66254 6.27455 10.6376 6.00612 13.69C5.80771 15.938 4.27073 18.7184 3.47442 20.0301C2.4366 19.1826 1.92577 18.4518 1.8719 18.3719C1.55858 17.9041 0.925656 17.7785 0.458818 18.0891C-0.0125099 18.4024 -0.14089 19.0362 0.171532 19.5058C0.326846 19.7401 3.8416 24.8825 11.9421 24.8825C12.4988 24.8825 13.0769 24.8591 13.6766 24.8071C22.9766 24.0045 25.4401 19.3774 25.5406 19.1817C25.7956 18.6834 25.5981 18.0774 25.1025 17.8162L25.1016 17.8144Z" fill="black"/>
</svg>
