<svg width="10" height="10" viewBox="0 0 10 10" fill="none" xmlns="http://www.w3.org/2000/svg">
<path fill-rule="evenodd" clip-rule="evenodd" d="M8.96304 3.33726C8.8675 3.15644 8.7533 2.97487 8.6292 2.81309C8.41984 2.54586 8.18117 2.30795 7.90443 2.08831C7.85646 1.84963 7.72323 1.46821 7.35133 1.06775C7.36122 1.06775 7.36122 1.07765 7.37036 1.07765C7.38977 1.0963 7.41832 1.11534 7.43735 1.13475C7.6943 1.32546 7.92346 1.54472 8.13282 1.79291C8.51424 2.24057 8.8005 2.7655 8.97218 3.32774C8.96266 3.32774 8.96266 3.33726 8.96266 3.33726H8.96304ZM6.71258 5.90253L5.82564 4.39587L6.62693 2.2695L7.76168 2.34563C7.99921 2.53596 8.20972 2.75561 8.39091 2.98438C8.61969 3.28016 8.79099 3.6041 8.91508 3.94745C8.66727 6.08334 8.57134 5.73999 6.7122 5.90215L6.71258 5.90253ZM8.35246 7.00873C8.08562 7.38064 7.77158 7.72361 7.39015 7.99046C6.06431 8.89681 5.71182 8.52452 5.44459 7.45677L6.69354 6.18841C8.12407 6.06431 8.32391 5.66424 8.42936 6.90329C8.40081 6.94212 8.37226 6.97066 8.35246 7.00873ZM3.85229 8.80126C3.47049 8.73465 3.09896 8.61055 2.74647 8.44839C2.44118 8.30526 2.15492 8.12407 1.8877 7.91394C2.31708 7.17051 1.25885 7.4758 3.38484 6.78947L5.15872 7.5329C5.48266 8.84923 5.53062 8.74417 3.85229 8.80126ZM0.772361 6.04566C0.734295 5.88388 0.677196 5.6452 0.648266 5.36884C0.620097 5.04452 0.629613 4.72971 0.677196 4.42442C0.715262 4.19565 0.772361 3.97639 0.85801 3.75751C2.04034 2.78454 2.45031 3.86219 3.40425 4.82564L3.24171 6.53214C1.84012 6.9897 1.70688 7.36198 0.772361 6.04604V6.04566ZM0.390939 4.38598C0.33384 4.70078 0.324323 5.01559 0.352873 5.33991C0.314807 5.2634 0.286257 5.20668 0.257707 5.14958C0.229158 4.94897 0.219641 4.74837 0.219641 4.539C0.219641 3.90025 0.362389 3.28967 0.620097 2.74647C0.591547 3.03273 0.601064 3.32774 0.620097 3.5569C0.515034 3.82374 0.429386 4.10048 0.390939 4.38636V4.38598ZM6.35057 2.15454L5.54966 4.28129L3.63265 4.63417C2.54586 3.547 1.50628 3.14654 2.66082 1.68747C2.66996 1.68747 2.99428 1.44918 3.52835 1.26836C3.84277 1.1633 4.15758 1.0963 4.47201 1.06775C4.72933 1.0491 4.98704 1.0491 5.24437 1.07765L6.35057 2.15454ZM2.08831 1.02017C2.13551 0.991622 2.17395 0.963072 2.22116 0.925006C2.4408 0.772361 2.69813 0.648646 2.95507 0.543584C3.49904 0.324323 4.08982 0.210125 4.68137 0.210125C5.07193 0.210125 5.48228 0.257327 5.8637 0.362009C5.71106 0.419108 5.52035 0.534067 5.21544 0.791014C4.95773 0.762464 4.7004 0.762464 4.44269 0.781878C4.09972 0.819563 3.75636 0.88694 3.4229 1.00114C3.11723 1.10582 2.87932 1.2204 2.71716 1.31556C2.46935 1.22992 2.15416 1.12485 2.0019 1.07765C2.02093 1.08679 2.06851 1.0392 2.08793 1.02017H2.08831ZM7.99046 1.32584C7.56107 0.915871 7.05631 0.582031 6.50283 0.352873C5.92156 0.114198 5.31098 0 4.68175 0C4.05252 0 3.43242 0.114198 2.86029 0.352873C2.29767 0.582031 1.80205 0.915871 1.37304 1.32584C0.944039 1.74495 0.600683 2.23144 0.371906 2.77502C0.124095 3.33726 0 3.9288 0 4.539C0 5.15872 0.123715 5.75027 0.371906 6.3125C0.600683 6.85571 0.944039 7.34219 1.37304 7.75254C1.80205 8.17203 2.29767 8.49635 2.86029 8.72513C3.43242 8.96343 4.05214 9.08752 4.68175 9.08752C5.31098 9.08752 5.9307 8.96343 6.50283 8.72513C7.06545 8.49635 7.56107 8.17203 7.99046 7.75254C8.41984 7.34219 8.76282 6.85571 8.99159 6.3125C9.2394 5.75027 9.3635 5.15872 9.3635 4.539C9.3635 3.9288 9.23978 3.33726 8.99159 2.77502C8.75368 2.23144 8.41984 1.74495 7.99046 1.32584V1.32584Z" fill="black"/>
</svg>
