<svg width="30" height="13" viewBox="0 0 30 13" xmlns="http://www.w3.org/2000/svg">
<path d="M14.2967 4.49901C14.3078 6.82035 14.2869 5.52089 14.2967 8.2025C13.1678 8.21109 13.0315 7.93981 12.1788 8.69727C11.6502 9.16658 11.1666 9.6313 10.281 9.71887C8.57687 9.88713 6.76891 9.8133 5.03735 9.86166L5.03792 8.68497C6.89654 8.5582 10.3743 9.0152 11.4565 7.86798C11.4771 7.84623 11.5927 7.46306 11.6193 7.42844C9.14805 8.29236 7.14864 7.99275 4.83732 8.01678C5.00072 9.24298 4.6021 10.5473 4.03951 10.7671C3.61713 12.1243 2.99674 12.9817 2.30537 12.9817C1.03224 12.9817 6.10352e-05 10.0757 6.10352e-05 6.49097C6.10352e-05 2.90624 1.03224 0.000274658 2.30537 0.000274658C2.86482 0.000274658 3.37762 0.561436 3.77681 1.49489C4.61412 1.65171 5.0508 2.25236 5.27486 4.18337L5.70296 3.48772C7.18728 3.53751 8.88421 3.36896 10.3308 3.56927C12.1316 3.81852 12.2729 4.59831 14.2967 4.49958V4.49901Z"/>
<path d="M15.2479 4.49901C15.2367 6.82035 15.2576 5.52089 15.2479 8.2025C16.3768 8.21109 16.513 7.93981 17.3657 8.69727C17.8943 9.16658 18.3779 9.6313 19.2635 9.71887C20.9676 9.88713 22.7756 9.8133 24.5072 9.86166L24.5066 8.68497C22.648 8.5582 19.1703 9.0152 18.088 7.86798C18.0674 7.84623 17.9518 7.46306 17.9252 7.42844C20.3965 8.29236 22.3959 7.99275 24.7072 8.01678C24.5438 9.24298 24.9424 10.5473 25.505 10.7671C25.9274 12.1243 26.5478 12.9817 27.2391 12.9817C28.5123 12.9817 29.5444 10.0757 29.5444 6.49097C29.5444 2.90624 28.5123 0.000274658 27.2391 0.000274658C26.6797 0.000274658 26.1669 0.561436 25.7677 1.49489C24.9304 1.65171 24.4937 2.25236 24.2696 4.18337L23.8416 3.48772C22.3572 3.53751 20.6603 3.36896 19.2138 3.56927C17.4129 3.81852 17.2716 4.59831 15.2479 4.49958V4.49901Z"/>
</svg>
