<svg width="53" height="45" viewBox="0 0 53 45" fill="none" xmlns="http://www.w3.org/2000/svg">
<path d="M26.6921 19.5444H25.9867C25.9867 19.5444 12.0235 21.8441 12.092 37.9245C12.0494 47.3674 19.9021 43.3027 19.9021 43.3027C19.9021 43.3027 23.2219 39.9421 25.9871 39.9421L26.6921 39.8691C29.4569 39.8691 32.7762 43.2048 32.7762 43.2048C32.7762 43.2048 40.6304 47.3601 40.5864 37.9168C40.6539 21.8345 26.6912 19.5444 26.6912 19.5444H26.6921ZM12.4991 19.6737C10.8783 14.8709 6.91877 11.7756 3.65933 12.759C0.398074 13.7433 -0.929914 18.4341 0.691872 23.2355C2.31275 28.0383 6.27042 31.1336 9.53213 30.1498C12.7911 29.1664 14.1218 24.4765 12.4991 19.6737ZM21.2823 18.4894C24.7045 17.4493 26.1045 12.5128 24.4093 7.46017C22.7123 2.40755 18.5601 -0.8469 15.1365 0.19409C11.7143 1.23327 10.3133 6.16981 12.009 11.2215C13.707 16.275 17.8573 19.5277 21.2823 18.4894V18.4894ZM49.1278 13.0981C45.8634 12.0535 41.9973 15.0209 40.4961 19.7235C38.9931 24.4266 40.4222 29.0857 43.6876 30.128C46.952 31.1717 50.8172 28.2043 52.3188 23.5017C53.8218 18.7982 52.3918 14.1405 49.1278 13.0981ZM27.9666 7.17407C29.5367 2.26065 33.7352 -0.787959 37.3437 0.364566C40.9527 1.518 42.6058 6.43504 41.0361 11.3498C39.4665 16.2642 35.2694 19.3132 31.66 18.1602C28.051 17.0077 26.397 12.0884 27.9666 7.17453V7.17407Z" fill="black"/>
</svg>
