<svg width="19" height="14" viewBox="0 0 19 14" xmlns="http://www.w3.org/2000/svg">
    <path d="M11.6858 2.63292H1.09292V9.8324H11.6858V2.63292V2.63292ZM14.1329 7.03476H15.4972V8.01377H14.1329V7.03476V7.03476ZM14.1329 5.45803H15.4972V6.43637H14.1329V5.45803V5.45803ZM14.1524 3.11136H18.2285V4.38052H14.1524V3.11136V3.11136ZM14.1524 1.13057H18.2285V2.4004H14.1524V1.13057ZM13.4843 13.0301H18.8055V-0.000549316H13.4843V13.0301ZM0.546795 1.53866H12.7793V10.9247H7.80324V11.2999C8.86399 11.4312 9.92475 11.7308 10.9855 12.2106C10.9855 12.484 10.9855 12.7574 10.9855 13.0301C7.96406 13.0301 4.94261 13.0301 1.92116 13.0301C1.92116 12.7574 1.92116 12.484 1.92116 12.2106C2.94975 11.7784 3.97834 11.4828 5.00627 11.3334V10.9247H-0.000671387V1.53866H0.546125H0.546795Z"/>
</svg>
