<svg width="12" height="18" viewBox="0 0 12 18" fill="none" xmlns="http://www.w3.org/2000/svg">
<path fill-rule="evenodd" clip-rule="evenodd" d="M10.1067 15.2676H7.58948V16.4524H10.1067V15.2676ZM7.05953 15.2676H4.5423V16.4524H7.05953V15.2676ZM3.99473 15.2676H1.47749V16.4524H3.99473V15.2676ZM10.1067 13.6108H7.58948V14.7956H10.1067V13.6108ZM7.05953 13.6108H4.5423V14.7956H7.05953V13.6108ZM3.99473 13.6108H1.47749V14.7956H3.99473V13.6108ZM10.1067 12.0607H7.58948V13.2456H10.1067V12.0607ZM7.05953 12.0607H4.5423V13.2456H7.05953V12.0607ZM3.99473 12.0607H1.47749V13.2456H3.99473V12.0607ZM10.1248 10.2321H7.60761V10.8392H10.1248V10.2321ZM3.99775 10.2321H1.48052V10.8392H3.99775V10.2321ZM4.95386 9.55107C4.64607 9.55107 4.3942 9.80295 4.3942 10.1107V10.9762C4.3942 11.284 4.64607 11.5353 4.95386 11.5353H6.64847C6.95626 11.5353 7.20814 11.2845 7.20814 10.9762V10.1107C7.20814 9.80295 6.95626 9.55107 6.64847 9.55107H4.95386V9.55107ZM3.66225 0.832696V1.50671H7.80458V0.832696H3.66225V0.832696ZM1.3299 2.55703V8.85993H10.4472V2.55703H1.3299V2.55703ZM1.5853 0H10.2266C11.0986 0 11.8119 0.713812 11.8119 1.5858V16.3315C11.8119 17.2035 11.0986 17.9168 10.2266 17.9168H1.5853C0.713308 17.9168 0 17.2035 0 16.3315V1.5858C0 0.713812 0.713308 0 1.5853 0V0Z" fill="black"/>
</svg>
