<svg width="17" height="12" viewBox="0 0 17 12" fill="none" xmlns="http://www.w3.org/2000/svg">
<path fill-rule="evenodd" clip-rule="evenodd" d="M2.89815 4.0196L4.23584 5.35802L5.56991 4.02394C5.19536 3.74773 4.73259 3.58504 4.23078 3.58504C3.73258 3.58504 3.27125 3.74628 2.89815 4.0196V4.0196ZM2.40863 7.18523L3.70655 5.88803L2.37464 4.55613C2.1194 4.922 1.96972 5.36669 1.96972 5.84682C1.96972 6.34791 2.13313 6.81068 2.40863 7.18595V7.18523ZM5.52147 7.70367L4.23584 6.41805L2.94659 7.70729C3.31175 7.95964 3.75355 8.10787 4.23078 8.10787C4.7109 8.10787 5.15559 7.9582 5.52147 7.70367V7.70367ZM6.49256 5.84682C6.49256 5.36959 6.34433 4.92706 6.09269 4.56191L4.76657 5.88803L6.05871 7.17944C6.33203 6.80561 6.49328 6.34501 6.49328 5.84682H6.49256ZM14.2627 2.34062L7.55548 2.34062V9.4781H14.2627V2.34062V2.34062ZM16.3828 2.39847V9.35156C16.3828 10.4687 15.4688 11.382 14.3524 11.382H2.6617C1.54455 11.382 0.631306 10.468 0.631306 9.35156V2.39847C0.631306 1.45847 1.27846 0.663087 2.14904 0.433872L2.15338 0.398442L7.87435 0.368073L14.3524 0.368073C15.4695 0.368073 16.3828 1.28132 16.3828 2.39847V2.39847Z" fill="black"/>
</svg>
