<svg width="17" height="15" viewBox="0 0 17 15" xmlns="http://www.w3.org/2000/svg">
 <path d="M6.78371 0L5.67143 2.11391H1.90231C0.856298 2.11391 0 2.97021 0 4.01643V12.1197C0 13.1663 0.856298 14.0222 1.90231 14.0222H14.2338C15.28 14.0222 16.1363 13.1663 16.1363 12.1197V4.01643C16.1363 2.97021 15.28 2.11391 14.2338 2.11391H13.6302L12.3505 0H6.78371V0ZM11.8439 5.46375C11.2202 4.84031 10.3584 4.45448 9.40689 4.45448C8.45543 4.45448 7.59314 4.84031 6.96991 5.46375C6.34586 6.0874 5.96023 6.94927 5.96023 7.90115C5.96023 8.85261 6.34586 9.71448 6.96991 10.3381C7.59314 10.9616 8.45543 11.3474 9.40689 11.3474C10.3584 11.3474 11.22 10.9616 11.8439 10.3381C12.4677 9.71448 12.8531 8.85261 12.8531 7.90115C12.8531 6.94927 12.4677 6.0876 11.8439 5.46375V5.46375ZM8.76446 5.4363C8.12575 5.0676 7.21681 5.4462 6.73416 6.28227C6.25151 7.11813 6.37785 8.09458 7.01698 8.46327C7.6559 8.83217 7.97588 8.09953 8.45873 7.26388C8.94138 6.42802 9.40318 5.8054 8.76426 5.4365L8.76446 5.4363ZM9.40689 2.85646C10.7995 2.85646 12.0608 3.42168 12.9735 4.33434C13.8866 5.24699 14.4514 6.50853 14.4514 7.90135C14.4514 9.29418 13.8866 10.5553 12.9735 11.4684C12.0608 12.381 10.7997 12.9454 9.40689 12.9454C8.01407 12.9454 6.75295 12.381 5.83988 11.4684C4.92722 10.5553 4.362 9.29418 4.362 7.90135C4.362 6.50873 4.92722 5.24699 5.83988 4.33434C6.75295 3.42168 8.01407 2.85646 9.40689 2.85646V2.85646ZM3.48795 0.111476C4.27158 0.111476 4.92021 0.688259 5.0292 1.43866H1.94628C2.05466 0.688259 2.70328 0.111476 3.48795 0.111476Z"/>
</svg>
