<svg width="10" height="7" viewBox="0 0 10 7" fill="none" xmlns="http://www.w3.org/2000/svg">
<path fill-rule="evenodd" clip-rule="evenodd" d="M2.7602 2.86958C2.54056 2.86958 2.35979 2.68796 2.35979 2.46918C2.35979 2.25039 2.54056 2.06961 2.7602 2.06961C2.97983 2.06961 3.16061 2.25039 3.16061 2.46918C3.16061 2.68796 2.97899 2.86958 2.7602 2.86958ZM1.9315 2.04089C1.71187 2.04089 1.53025 1.85927 1.53025 1.64048C1.53025 1.42169 1.71187 1.24007 1.9315 1.24007C2.15029 1.24007 2.33191 1.42169 2.33191 1.64048C2.33191 1.86012 2.15114 2.04089 1.9315 2.04089ZM1.9315 3.69997C1.71187 3.69997 1.53025 3.51835 1.53025 3.28942C1.53025 3.06979 1.71187 2.88901 1.9315 2.88901C2.15029 2.88901 2.33191 3.06979 2.33191 3.28942C2.33191 3.51835 2.15114 3.69997 1.9315 3.69997ZM1.11126 2.86958C0.882333 2.86958 0.701557 2.68796 0.701557 2.46918C0.701557 2.25039 0.883177 2.06961 1.11126 2.06961C1.33089 2.06961 1.51167 2.25039 1.51167 2.46918C1.51167 2.68796 1.33089 2.86958 1.11126 2.86958V2.86958ZM6.08849 2.53591V2.27826C6.08849 2.14479 6.20337 2.03075 6.34613 2.03075H7.10894V1.26795C7.10894 1.12519 7.22382 1.01115 7.35729 1.01115H7.61409C7.75685 1.01115 7.87089 1.12519 7.87089 1.26795V2.03075H8.62441C8.76801 2.03075 8.88205 2.14479 8.88205 2.27826V2.53591C8.88205 2.67867 8.76801 2.78426 8.62441 2.78426H7.87089V3.54707C7.87089 3.68983 7.75685 3.80471 7.61409 3.80471H7.35729C7.22382 3.80471 7.10894 3.68983 7.10894 3.54707V2.78426H6.34613C6.20337 2.78426 6.08849 2.67867 6.08849 2.53591ZM9.51139 4.98651L9.14899 3.34686C9.27317 3.07992 9.32977 2.79356 9.32977 2.4979C9.32977 1.83055 9.00623 1.21135 8.47151 0.829528V0.647908C8.47151 0.294806 8.18514 -0.000854492 7.83204 -0.000854492H6.93576C6.80229 -0.000854492 6.67896 0.0464511 6.57421 0.114031V0.438412C2.94351 0.438412 8.5771 0.438412 3.16061 0.438412C3.07529 0.180765 2.83622 -9.74881e-06 2.54986 -9.74881e-06H1.66372C1.31062 -9.74881e-06 1.01496 0.29565 1.01496 0.648753V0.72478C0.385623 1.09647 0.00464417 1.76381 0.00464417 2.4979C0.00464417 2.86958 0.110237 3.23198 0.300304 3.55636L0.0333654 4.739C-0.128825 5.47308 0.319733 6.2173 1.03439 6.39808C1.14843 6.4268 1.26331 6.43609 1.36806 6.43609C2.00669 6.43609 2.57942 5.98838 2.71289 5.35904L2.93252 4.36731C3.24677 4.21526 3.51455 3.99563 3.71391 3.71855H5.62134C5.85956 4.05222 6.19323 4.30058 6.57506 4.43405L6.77442 5.3582C6.91802 5.98753 7.47978 6.43525 8.11925 6.43525C8.21471 6.43525 8.30002 6.42595 8.39548 6.40652C8.76717 6.40652 9.09155 6.25447 9.30105 5.98669C9.52068 5.71975 9.59671 5.35735 9.51054 4.98567L9.51139 4.98651Z" fill="black"/>
</svg>
