<svg width="18" height="9" viewBox="0 0 18 9" fill="none" xmlns="http://www.w3.org/2000/svg">
<path fill-rule="evenodd" clip-rule="evenodd" d="M4.14943 5.0681C3.87956 5.93074 3.07435 6.55692 2.12292 6.55692C0.950259 6.55692 0 5.60666 0 4.43371C0 3.26164 0.950259 2.31109 2.12292 2.31109C3.02717 2.31109 3.79869 2.87632 4.1049 3.67245H5.94857L7.52823 1.08685L7.73305 0.751641H10.6761C10.922 0.303323 11.3987 -0.000244141 11.9455 -0.000244141C12.7448 -0.000244141 13.393 0.647327 13.393 1.44697C13.393 2.24633 12.7448 2.89419 11.9455 2.89419C11.4002 2.89419 10.9258 2.59268 10.6788 2.14729H8.5116L7.57951 3.67216H14.6688V2.58769L16.2675 3.5107L17.8662 4.43342L16.2675 5.35672L14.6688 6.27943V5.06751H9.38655L10.219 6.58183H11.0222V6.04062H13.3769V8.50198H11.0222V7.97748H9.39681L9.19726 7.61501L7.79663 5.0678H4.14856L4.14943 5.0681Z" fill="black"/>
</svg>
