<svg width="32" height="32" viewBox="0 0 32 32" xmlns="http://www.w3.org/2000/svg">
<path d="M15.8282 4.31765C18.9832 4.31765 21.8396 5.5968 23.9067 7.66386C25.974 9.73151 27.2529 12.5877 27.2529 15.742C27.2529 18.897 25.974 21.7534 23.9067 23.8202C21.8396 25.8873 18.9829 27.1664 15.8282 27.1664C12.6736 27.1664 9.8171 25.8876 7.75004 23.8202C5.68298 21.7531 4.40384 18.8967 4.40384 15.742C4.40384 12.5874 5.68298 9.73151 7.75004 7.66386C9.8171 5.5968 12.6739 4.31765 15.8282 4.31765V4.31765ZM23.2987 8.2715C25.2108 10.1835 26.3931 12.8247 26.3931 15.742C26.3931 18.6597 25.2108 21.3008 23.2987 23.2126C21.387 25.1243 18.7456 26.3072 15.8282 26.3072C12.9112 26.3072 10.27 25.1243 8.35769 23.2126C6.44625 21.3008 5.26363 18.6597 5.26363 15.742C5.26363 12.825 6.44655 10.1835 8.35769 8.2715C10.2697 6.35977 12.9109 5.17744 15.8282 5.17744C18.7453 5.17744 21.387 6.36007 23.2987 8.2715ZM10.4247 22.8924C10.0957 22.6426 9.78354 22.3706 9.4913 22.0789C8.14534 20.733 7.22585 18.9608 6.95173 16.9817H12.474C12.6225 17.3829 12.8402 17.7497 13.1137 18.0681L10.4247 22.8924ZM6.95173 14.5024H12.474C12.5803 14.2167 12.7211 13.9482 12.8924 13.702L9.73157 9.17406C9.65019 9.2495 9.57 9.32642 9.4913 9.40512C8.14534 10.7508 7.22585 12.5232 6.95173 14.5024ZM11.763 7.75325L14.9251 12.2821C15.214 12.2069 15.5164 12.1668 15.8285 12.1668C16.0156 12.1668 16.1994 12.1811 16.3782 12.2087L19.0672 7.3835C18.0631 6.99414 16.9707 6.78031 15.8288 6.78031C14.3652 6.78031 12.9836 7.13106 11.7633 7.75325H11.763ZM21.2317 8.59166L18.5439 13.4163C18.8168 13.7344 19.0348 14.1014 19.183 14.5021H24.705C24.4315 12.5229 23.5117 10.7505 22.1657 9.40482C21.8741 9.11258 21.5619 8.84113 21.2317 8.59166V8.59166ZM24.705 16.9814C24.4315 18.9605 23.5117 20.7327 22.1657 22.0786C22.087 22.1573 22.0071 22.2346 21.9254 22.3103L18.7643 17.7824C18.9356 17.5362 19.0773 17.2671 19.183 16.9814H24.705V16.9814ZM24.5598 6.95108C26.8124 9.20376 28.2059 12.3165 28.2059 15.7548C28.2059 19.1928 26.8124 22.3061 24.5598 24.5591C22.3065 26.8115 19.1937 28.2056 15.7554 28.2056C12.3178 28.2056 9.20471 26.8118 6.95173 24.5591C4.69845 22.3064 3.30556 19.1934 3.30556 15.7548C3.30556 12.3165 4.69875 9.20406 6.95173 6.95108C9.20471 4.6984 12.3172 3.30432 15.7554 3.30432C19.1943 3.30432 22.3065 4.6981 24.5598 6.95108V6.95108ZM15.7554 -0.000305176C20.1061 -0.000305176 24.0451 1.76293 26.8962 4.61435C29.7473 7.46547 31.5111 11.4042 31.5111 15.7548C31.5111 20.1057 29.7473 24.0444 26.8962 26.8955C24.0451 29.7467 20.1061 31.5105 15.7554 31.5105C11.4054 31.5105 7.46641 29.7467 4.61559 26.8955C1.76418 24.0444 0.000640869 20.1057 0.000640869 15.7548C0.000640869 11.4048 1.76418 7.46547 4.61559 4.61435C7.46671 1.76293 11.4057 -0.000305176 15.7554 -0.000305176V-0.000305176ZM19.8934 23.7308L16.7314 19.202C16.443 19.2771 16.1403 19.3172 15.8282 19.3172C15.6417 19.3172 15.4579 19.303 15.2785 19.275L12.5895 24.1006C13.5942 24.4899 14.6863 24.7037 15.8279 24.7037C17.2912 24.7037 18.6728 24.3524 19.8931 23.7308H19.8934Z"/>
</svg>
