<svg width="9" height="11" viewBox="0 0 9 11" fill="none" xmlns="http://www.w3.org/2000/svg">
<path fill-rule="evenodd" clip-rule="evenodd" d="M4.57764e-05 3.38248H8.04146V10.2194C8.04146 10.5636 7.7605 10.8439 7.41756 10.8439H0.623938C0.281008 10.8439 4.57764e-05 10.5636 4.57764e-05 10.2194V3.38248H4.57764e-05ZM4.24035 8.82544C4.76256 8.38805 5.11151 7.60473 5.11151 6.7107C5.11151 6.22278 5.00743 5.76734 4.82814 5.3835C5.41774 5.68733 5.82144 6.30219 5.82144 7.01212C5.82144 7.93803 5.13317 8.70391 4.24035 8.82544V8.82544ZM2.20322 6.06515C2.08169 6.69326 2.08951 7.32196 2.20322 7.95067C1.74658 7.95067 1.28994 7.95067 0.833907 7.95067C0.682296 7.30211 0.691321 6.67521 0.833907 6.06515C1.29055 6.06515 1.74718 6.06515 2.20322 6.06515ZM6.66913 1.78454C6.82676 1.78454 6.95551 1.91269 6.95551 2.07092C6.95551 2.22855 6.82736 2.35669 6.66913 2.35669C6.51091 2.35669 6.38276 2.22855 6.38276 2.07092C6.38276 1.91269 6.51091 1.78454 6.66913 1.78454V1.78454ZM5.75947 1.78454C5.9177 1.78454 6.04584 1.91269 6.04584 2.07092C6.04584 2.22855 5.9177 2.35669 5.75947 2.35669C5.60124 2.35669 5.47309 2.22855 5.47309 2.07092C5.47309 1.91269 5.60124 1.78454 5.75947 1.78454V1.78454ZM4.82513 1.78454C4.98336 1.78454 5.11091 1.91269 5.11091 2.07092C5.11091 2.22855 4.98276 2.35669 4.82513 2.35669C4.66751 2.35669 4.53876 2.22855 4.53876 2.07092C4.53876 1.91269 4.66751 1.78454 4.82513 1.78454V1.78454ZM3.91607 1.78454C4.0743 1.78454 4.20244 1.91269 4.20244 2.07092C4.20244 2.22855 4.0743 2.35669 3.91607 2.35669C3.75844 2.35669 3.62969 2.22855 3.62969 2.07092C3.62969 1.91269 3.75844 1.78454 3.91607 1.78454V1.78454ZM1.61362 1.37784C1.96317 1.37784 2.24534 1.66121 2.24534 2.00955C2.24534 2.3579 1.96257 2.64126 1.61362 2.64126C1.26528 2.64126 0.981909 2.3579 0.981909 2.00955C0.981909 1.66121 1.26468 1.37784 1.61362 1.37784V1.37784ZM3.99007 4.01419C2.7838 4.01419 1.74418 4.72712 1.26889 5.75471H2.20322H2.23451C2.62677 5.20843 3.26691 4.85226 3.99067 4.85226C5.1831 4.85226 6.14993 5.81908 6.14993 7.01152C6.14993 8.20335 5.1831 9.17017 3.99067 9.17017C3.2633 9.17017 2.62015 8.811 2.22909 8.2599H2.20322H1.26528C1.73936 9.2917 2.78139 10.0082 3.99007 10.0082C5.64516 10.0082 6.9868 8.66601 6.9868 7.01152C6.9868 5.35643 5.64516 4.01419 3.99007 4.01419V4.01419ZM7.41756 0.99881H0.623938C0.281008 0.99881 4.57764e-05 1.27977 4.57764e-05 1.6227V2.93065H8.04146V1.6227C8.04146 1.27977 7.7605 0.99881 7.41756 0.99881V0.99881Z" fill="black"/>
</svg>
